<?xml version="1.0" encoding="UTF-8"?>
<svg version="1.1" xmlns="http://www.w3.org/2000/svg" width="512" height="512">
<path d="M0 0 C3.79541956 0.85099093 5.85647858 3.21668898 8.42578125 5.9609375 C8.92787109 6.46882812 9.42996094 6.97671875 9.94726562 7.5 C13.61328125 11.29071003 13.61328125 11.29071003 13.61328125 13.5859375 C14.60328125 13.9159375 15.59328125 14.2459375 16.61328125 14.5859375 C18.015625 16.01171875 18.015625 16.01171875 19.55078125 17.8984375 C24.54679394 23.80966803 30.10464278 29.15870748 35.61328125 34.5859375 C38.86944996 33.50054793 39.42309314 32.89605358 41.515625 30.3359375 C46.26283727 24.74951486 51.34870626 19.51990627 56.49291992 14.30126953 C57.62288233 13.14950457 58.74652375 11.99150691 59.86401367 10.82763672 C61.49661699 9.12824616 63.1479695 7.44928655 64.8046875 5.7734375 C65.29860489 5.25168945 65.79252228 4.72994141 66.30140686 4.19238281 C68.80394374 1.70438774 70.2826049 0.63345789 73.81567383 0.12573242 C77.7477894 0.77256355 79.39424527 2.90202897 81.73828125 5.8984375 C82.20129639 6.46949219 82.66431152 7.04054688 83.14135742 7.62890625 C105.61328125 36.12365133 105.61328125 36.12365133 105.61328125 47.5859375 C106.27328125 47.9159375 106.93328125 48.2459375 107.61328125 48.5859375 C108.43530273 50.66455078 108.43530273 50.66455078 109.234375 53.40625 C109.52876465 54.40970459 109.8231543 55.41315918 110.12646484 56.44702148 C110.43148926 57.52411377 110.73651367 58.60120605 111.05078125 59.7109375 C111.36354004 60.80156494 111.67629883 61.89219238 111.99853516 63.01586914 C116.50226248 78.97965772 118.81041956 94.12769708 118.80078125 110.7109375 C118.80070068 111.99524658 118.80062012 113.27955566 118.80053711 114.6027832 C118.66892071 136.47465859 118.66892071 136.47465859 115.61328125 142.5859375 C116.42925781 142.16183594 117.24523437 141.73773438 118.0859375 141.30078125 C155.81883177 122.37172723 201.46471819 120.41205847 241.44873047 133.51513672 C259.80489349 139.77754974 259.80489349 139.77754974 262.61328125 142.5859375 C263.02184862 146.95069763 262.37779005 149.80521352 260.41015625 153.68359375 C259.9296582 154.64072266 259.44916016 155.59785156 258.95410156 156.58398438 C258.16664551 158.10088867 258.16664551 158.10088867 257.36328125 159.6484375 C256.83057617 160.69451172 256.29787109 161.74058594 255.74902344 162.81835938 C250.37452098 173.26510757 244.57472148 183.46490715 238.61328125 193.5859375 C239.52335937 193.88242188 240.4334375 194.17890625 241.37109375 194.484375 C244.8904169 195.68009684 248.21359511 197.0900756 251.61328125 198.5859375 C251.61328125 199.2459375 251.61328125 199.9059375 251.61328125 200.5859375 C252.12681152 200.68036133 252.6403418 200.77478516 253.16943359 200.87207031 C256.54494411 201.85808357 259.58777259 203.42722913 262.71484375 205.0078125 C263.73135513 205.5206076 263.73135513 205.5206076 264.7684021 206.04376221 C266.19679607 206.7675795 267.62390621 207.49393522 269.04980469 208.22265625 C271.23070984 209.33208591 273.42160822 210.41984555 275.61328125 211.5078125 C277.00197512 212.21482543 278.39001911 212.92311659 279.77734375 213.6328125 C280.43256012 213.95384949 281.08777649 214.27488647 281.7628479 214.60565186 C284.72519789 216.14989788 286.42577431 217.2543711 288.08837891 220.19433594 C288.61328125 222.5859375 288.61328125 222.5859375 287.84765625 224.8046875 C280.67994876 235.82032217 272.65856599 246.05171845 263.61328125 255.5859375 C263.14583496 256.08593262 262.67838867 256.58592773 262.19677734 257.10107422 C239.22737861 281.54182234 209.45252057 296.48691156 176.61328125 302.5859375 C177.00257813 303.17117188 177.391875 303.75640625 177.79296875 304.359375 C198.23048664 335.72201766 209.52796522 369.76483309 212.35620117 407.18457031 C212.54231454 409.53161492 212.54231454 409.53161492 213.1472168 411.52807617 C213.76669359 414.26331445 213.63616559 416.75782918 213.52734375 419.55859375 C213.46160156 421.27852539 213.46160156 421.27852539 213.39453125 423.03320312 C213.3171875 424.82274414 213.3171875 424.82274414 213.23828125 426.6484375 C213.17253906 428.4437793 213.17253906 428.4437793 213.10546875 430.27539062 C212.74413187 439.19338565 212.74413187 439.19338565 211.61328125 442.5859375 C202.94514709 446.92000458 185.04209389 440.81616087 176.0234375 438.44921875 C171.65549778 437.34347456 167.26311886 436.36814846 162.86328125 435.3984375 C161.64572144 435.12990967 161.64572144 435.12990967 160.40356445 434.85595703 C158.47374976 434.43134395 156.54355622 434.00845324 154.61328125 433.5859375 C154.45472656 434.875 154.29617188 436.1640625 154.1328125 437.4921875 C152.60846474 449.63772483 150.87172705 461.74171152 148.98828125 473.8359375 C148.87827789 474.5477417 148.76827454 475.2595459 148.65493774 475.99291992 C148.33944282 478.02963025 148.02007702 480.06569096 147.69921875 482.1015625 C147.51407715 483.28008789 147.32893555 484.45861328 147.13818359 485.67285156 C146.61328125 488.5859375 146.61328125 488.5859375 145.61328125 491.5859375 C141.74208498 493.5554935 137.53087524 491.89433536 133.55078125 490.8984375 C132.79796875 490.71490723 132.04515625 490.53137695 131.26953125 490.34228516 C125.28559735 488.84246583 119.17591029 487.29885904 113.61328125 484.5859375 C113.28328125 483.9259375 112.95328125 483.2659375 112.61328125 482.5859375 C110.95058532 482.23333129 109.28308173 481.90319959 107.61328125 481.5859375 C94.12630683 475.78286857 81.46533131 465.82674966 70.91015625 455.7421875 C68.62085554 453.53416987 68.62085554 453.53416987 66.015625 451.51953125 C54.27871898 442.07275323 45.60483485 427.73191856 38.61328125 414.5859375 C38.08347656 413.5959375 37.55367187 412.6059375 37.0078125 411.5859375 C33.61328125 405.04409576 33.61328125 405.04409576 33.61328125 401.5859375 C32.95328125 401.5859375 32.29328125 401.5859375 31.61328125 401.5859375 C31.35675781 402.29492188 31.10023438 403.00390625 30.8359375 403.734375 C21.56155467 425.36472472 -0.2152281 445.3647709 -18.38671875 459.5859375 C-19.42864336 460.4189483 -20.47030238 461.25229139 -21.51171875 462.0859375 C-28.79858119 467.8651352 -36.33759165 472.90280901 -44.38671875 477.5859375 C-45.31291016 478.13314453 -45.31291016 478.13314453 -46.2578125 478.69140625 C-53.70742975 483.08323292 -61.24776767 487.15914313 -69.13671875 490.7109375 C-69.80421143 491.01845947 -70.4717041 491.32598145 -71.15942383 491.64282227 C-73.89014407 492.83038192 -75.84527873 493.65663508 -78.83984375 493.265625 C-79.3503125 493.04132813 -79.86078125 492.81703125 -80.38671875 492.5859375 C-83.60281137 481.1908479 -85.46004888 469.86146022 -86.92236328 458.12353516 C-87.99740041 449.93358351 -89.2055786 441.76115697 -90.38671875 433.5859375 C-90.98727081 433.71121826 -91.58782288 433.83649902 -92.20657349 433.96557617 C-98.46697657 435.27033533 -104.72906429 436.56676107 -110.9921875 437.85839844 C-113.32824066 438.34129511 -115.66385852 438.8263027 -117.99902344 439.31347656 C-121.35889807 440.01404617 -124.72027377 440.70696703 -128.08203125 441.3984375 C-129.12287872 441.61717529 -130.1637262 441.83591309 -131.2361145 442.0612793 C-141.01865016 444.05863784 -141.01865016 444.05863784 -145.38671875 443.5859375 C-150.11004824 438.86260801 -148.69695086 430.62590774 -148.70141602 424.39453125 C-148.14785502 381.57707959 -131.34480902 343.35585888 -103.70703125 311.3359375 C-101.33184435 308.62562268 -101.33184435 308.62562268 -99.38671875 305.5859375 C-100.24394531 305.54855469 -101.10117188 305.51117188 -101.984375 305.47265625 C-108.45962727 305.1003475 -113.51580258 304.52139559 -119.38671875 301.5859375 C-120.67205582 301.15013652 -121.9646344 300.73541975 -123.26171875 300.3359375 C-128.05475885 298.77444186 -132.71649338 296.91480603 -137.38671875 295.0234375 C-138.53696533 294.56565918 -138.53696533 294.56565918 -139.71044922 294.09863281 C-145.26902478 291.82132544 -145.26902478 291.82132544 -146.38671875 289.5859375 C-148.04509096 288.89889759 -149.71371916 288.23654845 -151.38671875 287.5859375 C-175.76390613 274.07249667 -205.03959875 250.31138647 -215.38671875 223.5859375 C-215.75390625 221.00390625 -215.75390625 221.00390625 -215.38671875 218.5859375 C-213.83203125 217.13671875 -213.83203125 217.13671875 -211.51171875 215.8984375 C-210.5990625 215.39699219 -209.68640625 214.89554688 -208.74609375 214.37890625 C-207.6375 213.78722656 -206.52890625 213.19554687 -205.38671875 212.5859375 C-204.01500682 211.81460293 -202.6453429 211.0396191 -201.27734375 210.26171875 C-193.11685928 205.64058114 -184.89658233 201.21424054 -176.42529297 197.18603516 C-173.22519544 195.63797654 -170.80616203 194.17589825 -168.38671875 191.5859375 C-168.86488037 190.69600098 -169.34304199 189.80606445 -169.83569336 188.88916016 C-174.60617599 179.99051668 -179.31328139 171.06169009 -183.88110352 162.05712891 C-184.60374958 160.63892568 -185.33211027 159.22362223 -186.06567383 157.81103516 C-187.145777 155.72955422 -188.20746663 153.63957926 -189.265625 151.546875 C-189.59567032 150.91977631 -189.92571564 150.29267761 -190.26576233 149.64657593 C-191.66812384 146.82900459 -192.40723931 144.90889403 -192.20581055 141.73876953 C-191.38671875 139.5859375 -191.38671875 139.5859375 -189.40234375 138.1796875 C-148.32729872 121.93531941 -99.98034352 122.50800285 -59.38671875 139.5859375 C-56.37991996 140.92151557 -53.39138076 142.2785621 -50.42578125 143.703125 C-48.45115183 144.71837463 -48.45115183 144.71837463 -46.38671875 144.5859375 C-46.52674316 144.05766357 -46.66676758 143.52938965 -46.81103516 142.98510742 C-48.76075977 134.66645478 -48.78615616 126.38964392 -48.76171875 117.8984375 C-48.76051025 117.12382172 -48.75930176 116.34920593 -48.75805664 115.55111694 C-48.58525949 74.62611354 -33.7912566 35.19503824 -6.38671875 4.5859375 C-5.42765625 3.45285156 -5.42765625 3.45285156 -4.44921875 2.296875 C-2.38671875 0.5859375 -2.38671875 0.5859375 0 0 Z " fill="#FE99E3" transform="translate(220.38671875,3.4140625)"/>
</svg>
